<svg xmlns="http://www.w3.org/2000/svg" width="16.98" height="13.816" viewBox="0 0 16.98 13.816">
  <g id="그룹_1314" data-name="그룹 1314" transform="translate(-1.937 -2.779)">
    <g id="그룹_1068" data-name="그룹 1068" transform="translate(1.937 2.779)">
      <path id="마이크_선" data-name="마이크 선" d="M647.713,1196.155a1.813,1.813,0,0,1-1.813,1.813h-3.516a1.435,1.435,0,0,1,.062.957h4.127a2.24,2.24,0,0,0,2.24-2.24v-1.42h-1.1Z" transform="translate(-632.542 -1186.151)" fill="#fff"/>
      <path id="왼쪽_헤드셋" data-name="왼쪽 헤드셋" d="M427.7,1090.787h-.049a.653.653,0,0,0-.667.637v3.566h0a.585.585,0,0,0,.6.571H428.8v-4.774Z" transform="translate(-426.984 -1086.447)" fill="#91d3f5"/>
      <path id="오른쪽_헤드셋" data-name="오른쪽 헤드셋" d="M760.207,1090.788h-1.184v4.774h1.161a.634.634,0,0,0,.648-.619v-3.558A.612.612,0,0,0,760.207,1090.788Z" transform="translate(-743.852 -1086.448)" fill="#91d3f5"/>
      <path id="패스_1814" data-name="패스 1814" d="M486.423,997.95h-3.5l-.2-.346-.558-.957-.491-.842H479.94a.3.3,0,0,0-.149.039.292.292,0,0,0-.109.4l.232.4.553.957.2.346h-3.614a1.585,1.585,0,0,0-1.593,1.577v6.171a1.585,1.585,0,0,0,1.593,1.577h3.6a1.456,1.456,0,0,1,2.232,0h3.537a1.585,1.585,0,0,0,1.593-1.577v-6.171A1.585,1.585,0,0,0,486.423,997.95Z" transform="translate(-473.244 -995.804)" fill="#fff"/>
      <path id="패스_1815" data-name="패스 1815" d="M629.507,997.29l.369-.639.232-.4a.291.291,0,0,0,.04-.148.3.3,0,0,0-.3-.293h-1.207l.491.842Z" transform="translate(-619.43 -995.809)" fill="#fff"/>
      <path id="마이크" d="M584.97,1236.334a1.433,1.433,0,1,0,.117.567A1.441,1.441,0,0,0,584.97,1236.334Z" transform="translate(-575.128 -1224.518)" fill="#91d3f5"/>
      <path id="왼쪽_눈" data-name="왼쪽 눈" d="M547.7,1092.8h0a.561.561,0,0,0-.562.561v1.122h0a.562.562,0,0,0,1.123,0v-1.122A.562.562,0,0,0,547.7,1092.8Z" transform="translate(-541.648 -1088.371)" fill="#0c4da2"/>
      <path id="오른쪽_눈" data-name="오른쪽 눈" d="M655.778,1095.048h0a.562.562,0,0,0,.562-.561v-1.122a.561.561,0,0,0-1.122,0v1.122A.561.561,0,0,0,655.778,1095.048Z" transform="translate(-644.789 -1088.371)" fill="#0c4da2"/>
      <path id="입" d="M580.847,1194.531a1.33,1.33,0,0,1-2.2.007l-.01-.018a.273.273,0,0,0-.474.27,1.869,1.869,0,0,0,3.166,0,.273.273,0,1,0-.483-.253Zm.3.157v0Z" transform="translate(-571.226 -1185.312)" fill="#0c4da2"/>
    </g>
  </g>
</svg>
