<svg xmlns="http://www.w3.org/2000/svg" width="28" height="28" viewBox="0 0 28 28">
  <g id="그룹_1045" data-name="그룹 1045" transform="translate(-684.648 -767.648)">
    <g id="타원_359" data-name="타원 359" transform="translate(684.649 767.649)">
      <circle id="타원_358" data-name="타원 358" cx="14" cy="14" r="14" transform="translate(0 0)" fill="#0c4da2"/>
    </g>
    <g id="그룹_954" data-name="그룹 954" transform="translate(687.344 774.388)">
      <g id="그룹_952" data-name="그룹 952" transform="translate(0 2.594)">
        <g id="패스_1736" data-name="패스 1736" transform="translate(2.957)">
          <path id="패스_1736-2" data-name="패스 1736" d="M8126.63,880.362v7.418a2.137,2.137,0,0,1-2.228,2.033h-12.47a2.137,2.137,0,0,1-2.229-2.033v-7.418a2.137,2.137,0,0,1,2.229-2.033h12.47A2.137,2.137,0,0,1,8126.63,880.362Z" transform="translate(-8109.704 -878.329)" fill="#fff"/>
        </g>
        <g id="사각형_7430" data-name="사각형 7430" transform="translate(0 2.632)">
          <path id="패스_1737" data-name="패스 1737" d="M8096.62,903.051h-1.6a.754.754,0,0,1-.786-.718v-4.479a.841.841,0,0,1,.876-.8h1.506v6Z" transform="translate(-8094.238 -897.055)" fill="#5b9bd5"/>
        </g>
        <g id="사각형_7431" data-name="사각형 7431" transform="translate(4.506 1.324)">
          <rect id="사각형_7429" data-name="사각형 7429" width="13.906" height="5.498" rx="2.749" fill="#fff"/>
        </g>
        <g id="그룹_877" data-name="그룹 877" transform="translate(7.287 2.747)">
          <g id="사각형_7432" data-name="사각형 7432">
            <path id="패스_1738" data-name="패스 1738" d="M8138.475,898.351h0a.742.742,0,0,1,.772.7v1.41a.742.742,0,0,1-.772.7h0a.742.742,0,0,1-.774-.7v-1.41A.742.742,0,0,1,8138.475,898.351Z" transform="translate(-8137.701 -898.351)" fill="#0c4da2"/>
          </g>
          <g id="사각형_7433" data-name="사각형 7433" transform="translate(6.798)">
            <path id="패스_1739" data-name="패스 1739" d="M8182.475,898.351h0a.742.742,0,0,1,.772.7v1.41a.742.742,0,0,1-.772.7h0a.742.742,0,0,1-.772-.7v-1.41A.742.742,0,0,1,8182.475,898.351Z" transform="translate(-8181.702 -898.351)" fill="#0c4da2"/>
          </g>
        </g>
        <g id="사각형_7434" data-name="사각형 7434" transform="translate(20.456 2.632)">
          <path id="패스_1741" data-name="패스 1741" d="M8219.23,897.055h1.563a.787.787,0,0,1,.82.75h0v4.469a.817.817,0,0,1-.852.778h-1.531v-6Z" transform="translate(-8219.23 -897.055)" fill="#5b9bd5"/>
        </g>
        <path id="패스_1742" data-name="패스 1742" d="M8152.535,939.683a2.332,2.332,0,0,1-2.179-1.1.328.328,0,0,1,.148-.464.4.4,0,0,1,.5.125l.015.023a1.932,1.932,0,0,0,3.025-.009.364.364,0,0,1,.219-.166.406.406,0,0,1,.286.022.345.345,0,0,1,.185.2.312.312,0,0,1-.024.262A2.33,2.33,0,0,1,8152.535,939.683Zm1.925-1.224v0Z" transform="translate(-8141.075 -929.501)" fill="#0c4da2"/>
      </g>
      <g id="그룹_953" data-name="그룹 953" transform="translate(8.566)">
        <path id="패스_1761" data-name="패스 1761" d="M-1189.8,906.329a.407.407,0,0,0-.2.054.4.4,0,0,0-.148.552l2.539,4.441a.409.409,0,0,0,.15.15.4.4,0,0,0,.552-.15l1.188-2.079-1.714-2.969Z" transform="translate(1190.208 -906.329)" fill="#fff"/>
        <path id="패스_1762" data-name="패스 1762" d="M-1178.668,906.733a.4.4,0,0,0-.405-.4h-1.645l1.177,2.039.818-1.432A.4.4,0,0,0-1178.668,906.733Z" transform="translate(1184.556 -906.329)" fill="#fff"/>
      </g>
    </g>
  </g>
</svg>
