<svg xmlns="http://www.w3.org/2000/svg" width="90" height="90" viewBox="0 0 90 90">
  <path d="M45,90A45.012,45.012,0,0,1,27.484,3.536,45.012,45.012,0,0,1,62.516,86.464,44.718,44.718,0,0,1,45,90ZM42.308,47.08h0l.006,17.085a2.283,2.283,0,0,0,4.566-.006l-.017-17.3,17.3.018a2.283,2.283,0,0,0,.018-4.567h-.012l-17.086-.006.006-17.086a2.277,2.277,0,0,0-2.268-2.28h-.012a2.306,2.306,0,0,0-2.285,2.286l-.006,17.285-17.285.005a2.308,2.308,0,0,0-2.286,2.287,2.273,2.273,0,0,0,2.28,2.28Z" fill="#fafafa"/>
</svg>
