<svg xmlns="http://www.w3.org/2000/svg" width="22.394" height="22.394" viewBox="0 0 22.394 22.394">
  <g id="Icon_feather-image" data-name="Icon feather-image" transform="translate(1 1)" style="isolation: isolate">
    <path id="패스_11" data-name="패스 11" d="M6.722,4.5H22.278A2.222,2.222,0,0,1,24.5,6.722V22.278A2.222,2.222,0,0,1,22.278,24.5H6.722A2.222,2.222,0,0,1,4.5,22.278V6.722A2.222,2.222,0,0,1,6.722,4.5Z" transform="translate(-4.5 -4.5)" fill="none" stroke="#9bafa1" stroke-linecap="round" stroke-linejoin="round" stroke-width="2"/>
    <path id="패스_12" data-name="패스 12" d="M15,12.75a2.25,2.25,0,1,1-2.25-2.25A2.25,2.25,0,0,1,15,12.75Z" transform="translate(-6.367 -6.367)" fill="none" stroke="#9bafa1" stroke-linecap="round" stroke-linejoin="round" stroke-width="2"/>
    <path id="패스_13" data-name="패스 13" d="M24.5,22.5,19.188,15,7.5,31.5" transform="translate(-4.5 -11.5)" fill="none" stroke="#9bafa1" stroke-linecap="round" stroke-linejoin="round" stroke-width="2"/>
  </g>
</svg>
