<svg xmlns="http://www.w3.org/2000/svg" width="10.564" height="13.204" viewBox="0 0 10.564 13.204">
  <path id="Icon_material-find-in-page" data-name="Icon material-find-in-page" d="M16.564,14.613V6.961L12.6,3H7.32A1.319,1.319,0,0,0,6.007,4.32L6,14.884A1.319,1.319,0,0,0,7.314,16.2h7.929a1.309,1.309,0,0,0,.786-.264L13.1,13.016a3.3,3.3,0,1,1,1.479-2.753,3.287,3.287,0,0,1-.548,1.816ZM9.3,10.262a1.981,1.981,0,1,0,1.981-1.981A1.978,1.978,0,0,0,9.3,10.262Z" transform="translate(-6 -3)" fill="#d34b82"/>
</svg>
