<svg xmlns="http://www.w3.org/2000/svg" width="13" height="14" viewBox="0 0 13 14">
  <g id="chat-more-dual-icon" transform="translate(-901 -522)">
    <g id="패스_1961" data-name="패스 1961" transform="translate(901 525)" fill="none">
      <path d="M2,0H8a2,2,0,0,1,2,2V9a2,2,0,0,1-2,2H2A2,2,0,0,1,0,9V2A2,2,0,0,1,2,0Z" stroke="none"/>
      <path d="M 2 1.5 C 1.724300384521484 1.5 1.5 1.724300384521484 1.5 2 L 1.5 9 C 1.5 9.275699615478516 1.724300384521484 9.5 2 9.5 L 8 9.5 C 8.275699615478516 9.5 8.5 9.275699615478516 8.5 9 L 8.5 2 C 8.5 1.724300384521484 8.275699615478516 1.5 8 1.5 L 2 1.5 M 2 0 L 8 0 C 9.104570388793945 0 10 0.8954296112060547 10 2 L 10 9 C 10 10.10457038879395 9.104570388793945 11 8 11 L 2 11 C 0.8954296112060547 11 0 10.10457038879395 0 9 L 0 2 C 0 0.8954296112060547 0.8954296112060547 0 2 0 Z" stroke="none" fill="#707070"/>
    </g>
    <g id="합치기_1" data-name="합치기 1" transform="translate(901 522)" fill="none">
      <path d="M10,11V9.5h1a.5.5,0,0,0,.5-.5V2a.5.5,0,0,0-.5-.5H5a.5.5,0,0,0-.5.5V3H3V2A2,2,0,0,1,5,0h6a2,2,0,0,1,2,2V9a2,2,0,0,1-1.812,1.981A1.848,1.848,0,0,1,11,11Z" stroke="none"/>
      <path d="M 10.99980068206787 10.99980068206787 L 9.999900817871094 10.99980068206787 L 9.999900817871094 9.500400543212891 L 10.99980068206787 9.500400543212891 C 11.27610111236572 9.500400543212891 11.49930095672607 9.276300430297852 11.49930095672607 9 L 11.49930095672607 1.999800324440002 C 11.49930095672607 1.724400281906128 11.27610111236572 1.500300288200378 10.99980068206787 1.500300288200378 L 4.999500751495361 1.500300288200378 C 4.724101066589355 1.500300288200378 4.500000953674316 1.724400281906128 4.500000953674316 1.999800324440002 L 4.500000953674316 2.999700307846069 L 2.999701023101807 2.999700307846069 L 2.999701023101807 1.999800324440002 C 2.999701023101807 1.86210036277771 3.014101028442383 1.728000283241272 3.041100978851318 1.596600294113159 C 3.2274010181427 0.6867003440856934 4.034700870513916 3.410339388665307e-07 4.999500751495361 3.410339388665307e-07 L 10.99980068206787 3.410339388665307e-07 C 12.1023006439209 3.410339388665307e-07 12.99960136413574 0.8973003625869751 12.99960136413574 1.999800324440002 L 12.99960136413574 9 C 12.99960136413574 10.03859996795654 12.20130062103271 10.88370037078857 11.18790054321289 10.98090076446533 C 11.12490081787109 10.98720073699951 11.06460094451904 10.99980068206787 10.99980068206787 10.99980068206787 Z" stroke="none" fill="#707070"/>
    </g>
  </g>
</svg>
