<svg xmlns="http://www.w3.org/2000/svg" width="14" height="13.861" viewBox="0 0 14 13.861">
  <g id="chat-reply-close-icon" transform="translate(-1618.128 -278.628)">
    <path id="Icon_ionic-ios-arrow-forward" data-name="Icon ionic-ios-arrow-forward" d="M5.536,6.928.291,1.687a.986.986,0,0,1,0-1.4,1,1,0,0,1,1.4,0L7.637,6.226a.989.989,0,0,1,.029,1.366L1.7,13.572a.991.991,0,0,1-1.4-1.4Z" transform="translate(1632.128 292.489) rotate(180)" fill="#ababab"/>
    <path id="Icon_ionic-ios-arrow-forward-2" data-name="Icon ionic-ios-arrow-forward" d="M5.536,6.933.291,12.174a.986.986,0,0,0,0,1.4,1,1,0,0,0,1.4,0L7.637,7.635a.989.989,0,0,0,.029-1.366L1.7.289a.991.991,0,0,0-1.4,1.4Z" transform="translate(1618.128 278.628)" fill="#ababab"/>
  </g>
</svg>
