<svg xmlns="http://www.w3.org/2000/svg" width="17.874" height="12.999" viewBox="0 0 17.874 12.999">
  <path id="chat-user-add-icon" d="M485.562,982.275H488V983.9h-2.437v2.437h-1.625V983.9H481.5v-1.625h2.437v-2.437h1.625Zm3.006,4.143a12.019,12.019,0,0,1,4.306-.894,12.378,12.378,0,0,1,4.306.894c1.544.569,2.194,1.381,2.194,2.356V990.4h-13v-1.625C486.375,987.8,487.106,987.068,488.568,986.418Zm6.581-3.494a3.141,3.141,0,1,1,.975-2.275A2.95,2.95,0,0,1,495.149,982.925Z" transform="translate(-481.5 -977.4)" fill="#6b6b6b"/>
</svg>
