<svg xmlns="http://www.w3.org/2000/svg" width="14" height="14" viewBox="0 0 14 14">
  <path id="chat-import-icon" d="M4.486,5.205H.328A.343.343,0,0,1,0,4.849V2.477A1.029,1.029,0,0,1,.984,1.409H3.828a1.029,1.029,0,0,1,.984,1.068V4.849a.369.369,0,0,1-.095.252.313.313,0,0,1-.232.1ZM14,4.849V2.474a1.029,1.029,0,0,0-.984-1.068H10.172a1.029,1.029,0,0,0-.984,1.068V4.846a.343.343,0,0,0,.328.356h4.156a.312.312,0,0,0,.232-.1A.368.368,0,0,0,14,4.849Zm-4.484,1.3a.343.343,0,0,0-.328.356V8.052c0,3.8-4.375,3.793-4.375,0V6.51a.343.343,0,0,0-.328-.356H.331A.316.316,0,0,0,.1,6.259a.372.372,0,0,0-.1.254c0,.635.016,1.2,0,1.581a7.265,7.265,0,0,0,7.021,7.313A7.227,7.227,0,0,0,14,8.09c-.016-.38-.005-.979,0-1.578a.372.372,0,0,0-.1-.254.316.316,0,0,0-.233-.105Z" transform="translate(0 -1.406)" fill="#707070"/>
</svg>
