<svg xmlns="http://www.w3.org/2000/svg" xmlns:xlink="http://www.w3.org/1999/xlink" width="30" height="30" viewBox="0 0 30 30">
  <defs>
    <clipPath id="clip-path">
      <rect id="사각형_9070" data-name="사각형 9070" width="30" height="30" transform="translate(0 -0.001)" fill="none"/>
    </clipPath>
  </defs>
  <g id="그룹_1557" data-name="그룹 1557" transform="translate(0 0.001)">
    <g id="그룹_1395" data-name="그룹 1395" clip-path="url(#clip-path)">
      <path id="패스_1872" data-name="패스 1872" d="M43.007,23.386a1,1,0,1,1,1.993,0Z" transform="translate(-29.004 -15.099)" fill="#fff"/>
      <rect id="사각형_9069" data-name="사각형 9069" width="1.028" height="3.363" transform="translate(14.486 4.426)" fill="#fff"/>
      <path id="패스_1873" data-name="패스 1873" d="M44.757,11.057a1.224,1.224,0,1,0-1.224,1.224,1.224,1.224,0,0,0,1.224-1.224" transform="translate(-28.533 -6.631)" fill="#fff"/>
      <path id="패스_1874" data-name="패스 1874" d="M24.765,40.222a18,18,0,0,1-6.016-.935c-3.714-1.368-4.269-3.8-4.269-5.132a10.284,10.284,0,0,1,20.569,0c0,1.329-.555,3.764-4.269,5.132a18,18,0,0,1-6.016.935m0-15.324a9.267,9.267,0,0,0-9.257,9.257c0,1.062.467,3.015,3.6,4.167a16.962,16.962,0,0,0,5.66.872,16.962,16.962,0,0,0,5.66-.872c3.129-1.152,3.6-3.105,3.6-4.167A9.267,9.267,0,0,0,24.765,24.9" transform="translate(-9.766 -16.098)" fill="#fff"/>
      <path id="패스_1875" data-name="패스 1875" d="M31.156,33.346a7.2,7.2,0,0,0-7.2,7.2c0,3.976,14.4,3.976,14.4,0a7.2,7.2,0,0,0-7.2-7.2m-3.632,4.22c0-.994.491-1.8,1.1-1.8s1.1.806,1.1,1.8-.491,1.8-1.1,1.8-1.1-.806-1.1-1.8M33.235,41.3a2.581,2.581,0,0,1-4.158,0,.514.514,0,0,1,.828-.61,1.553,1.553,0,0,0,2.5,0,.514.514,0,0,1,.827.61m.457-1.93c-.6,0-1.1-.806-1.1-1.8s.491-1.8,1.1-1.8,1.1.806,1.1,1.8-.491,1.8-1.1,1.8" transform="translate(-16.157 -22.488)" fill="#fff"/>
      <path id="패스_1876" data-name="패스 1876" d="M12.344,48.719h.65V51.9h-.65a.7.7,0,0,1-.7-.7V49.418a.7.7,0,0,1,.7-.7" transform="translate(-7.853 -32.856)" fill="#fff"/>
      <path id="패스_1877" data-name="패스 1877" d="M77,48.719h-.65V51.9H77a.7.7,0,0,0,.7-.7V49.418a.7.7,0,0,0-.7-.7" transform="translate(-51.488 -32.856)" fill="#fff"/>
    </g>
  </g>
</svg>
