<svg id="photo" xmlns="http://www.w3.org/2000/svg" width="13" height="12.935" viewBox="0 0 13 12.935">
  <path id="path" d="M224.994,245.894v4.527H223.7v-4.527a1.326,1.326,0,0,1,1.294-1.294h4.527v1.294Zm0,5.821v4.527h4.527v1.293h-4.527a1.326,1.326,0,0,1-1.294-1.293v-4.527Zm3.881,0,1.94,2.393,1.294-1.746,1.94,2.587h-7.761Zm6.532-7.114a1.326,1.326,0,0,1,1.294,1.294v4.527h-1.294v-4.527h-4.527V244.6Zm0,11.642v-4.527H236.7v4.527a1.326,1.326,0,0,1-1.294,1.293h-4.527v-1.293Zm-2.264-8.149a.883.883,0,0,1,.259.711.973.973,0,0,1-.259.711.883.883,0,0,1-.711.259.973.973,0,0,1-.711-.259.883.883,0,0,1-.259-.711.973.973,0,0,1,.259-.711,1.108,1.108,0,0,1,1.423,0Z" transform="translate(-223.7 -244.6)" fill="#39374d"/>
</svg>
