<svg id="chat-reply-icon" xmlns="http://www.w3.org/2000/svg" xmlns:xlink="http://www.w3.org/1999/xlink" width="13.001" height="12.106" viewBox="0 0 13.001 12.106">
  <defs>
    <clipPath id="clip-path">
      <rect id="사각형_9688" data-name="사각형 9688" width="13.001" height="12.106" fill="none"/>
    </clipPath>
  </defs>
  <g id="그룹_1628" data-name="그룹 1628" clip-path="url(#clip-path)">
    <path id="패스_1960" data-name="패스 1960" d="M12.761,8.114,9.878,5.425a.754.754,0,0,0-1.066.037.744.744,0,0,0-.2.566V7.987H1.508V.754A.754.754,0,1,0,0,.754V8.741A.754.754,0,0,0,.754,9.5H8.616V11.3a.43.43,0,0,0,0,.062v.145H8.64a.727.727,0,0,0,.173.358.754.754,0,0,0,1.066.038l2.883-2.687a.755.755,0,0,0,0-1.1" fill="#6f6f6f"/>
  </g>
</svg>
