<svg xmlns="http://www.w3.org/2000/svg" width="35" height="35" viewBox="0 0 35 35">
  <g id="그룹_718" data-name="그룹 718" transform="translate(-2475 678)">
    <g id="그룹_712" data-name="그룹 712" transform="translate(-442 191)">
      <rect id="사각형_4727" data-name="사각형 4727" width="35" height="35" rx="7" transform="translate(2917 -869)" fill="#f1f1f1"/>
      <path id="path" d="M486.5,983.4h3v2h-3v3h-2v-3h-3v-2h3v-3h2Zm3.7,5.1a14.793,14.793,0,0,1,5.3-1.1,15.237,15.237,0,0,1,5.3,1.1c1.9.7,2.7,1.7,2.7,2.9v2h-16v-2C487.5,990.2,488.4,989.3,490.2,988.5Zm8.1-4.3a3.867,3.867,0,1,1,1.2-2.8A3.631,3.631,0,0,1,498.3,984.2Z" transform="translate(2441 -1837)" fill="#6b6b6b"/>
    </g>
  </g>
</svg>
