<svg xmlns="http://www.w3.org/2000/svg" width="35" height="35" viewBox="0 0 35 35">
  <g id="그룹_711" data-name="그룹 711" transform="translate(-2872 869)">
    <rect id="사각형_4729" data-name="사각형 4729" width="35" height="35" rx="7" transform="translate(2872 -869)" fill="#f1f1f1"/>
    <path id="path" d="M89.9,283.138h1.421v10.9a5.211,5.211,0,1,1-10.423,0V282.19a3.791,3.791,0,0,1,7.58,0v9.949a2.413,2.413,0,0,1-4.074,1.706,2.373,2.373,0,0,1-.758-1.706v-9h1.421v9a.948.948,0,0,0,1.9,0V282.19a2.283,2.283,0,0,0-.663-1.706,2.465,2.465,0,0,0-4.169,1.706v11.844a3.791,3.791,0,0,0,7.58,0v-10.9Z" transform="translate(3033.01 -1114.988) rotate(45)" fill="#6b6b6b"/>
  </g>
</svg>
