<svg xmlns="http://www.w3.org/2000/svg" width="20" height="20" viewBox="0 0 20 20">
  <g id="그룹_1281" data-name="그룹 1281" transform="translate(-1237 -504)">
    <rect id="사각형_7594" data-name="사각형 7594" width="20" height="20" rx="4" transform="translate(1237 504)" fill="#0c4da2"/>
    <path id="패스_1792" data-name="패스 1792" d="M647.717,1196.156a1.814,1.814,0,0,1-1.814,1.814h-3.519a1.435,1.435,0,0,1,.062.958h4.13a2.242,2.242,0,0,0,2.242-2.242v-1.421h-1.1Z" transform="translate(605.914 -679.113)" fill="#fff"/>
    <path id="패스_1793" data-name="패스 1793" d="M427.7,1090.787h-.049a.653.653,0,0,0-.668.637v3.568h0a.586.586,0,0,0,.6.572H428.8v-4.777Z" transform="translate(811.465 -579.412)" fill="#91d3f5"/>
    <path id="패스_1794" data-name="패스 1794" d="M760.208,1090.788h-1.185v4.777h1.161a.635.635,0,0,0,.649-.619v-3.56A.612.612,0,0,0,760.208,1090.788Z" transform="translate(494.608 -579.413)" fill="#91d3f5"/>
    <g id="그룹_1026" data-name="그룹 1026" transform="translate(1240.665 507.032)">
      <path id="패스_1795" data-name="패스 1795" d="M486.431,997.951h-3.5l-.2-.346-.559-.958-.492-.843h-1.736a.3.3,0,0,0-.149.039.293.293,0,0,0-.109.4l.232.4.553.958.2.346h-3.617a1.586,1.586,0,0,0-1.594,1.578v6.175a1.586,1.586,0,0,0,1.594,1.578h3.605a1.457,1.457,0,0,1,2.233,0h3.54a1.586,1.586,0,0,0,1.594-1.578V999.53A1.586,1.586,0,0,0,486.431,997.951Z" transform="translate(-475.459 -995.804)" fill="#fff"/>
      <path id="패스_1796" data-name="패스 1796" d="M629.508,997.291l.369-.639.232-.4a.292.292,0,0,0,.04-.148.3.3,0,0,0-.3-.293h-1.207l.491.843Z" transform="translate(-621.64 -995.809)" fill="#fff"/>
    </g>
    <path id="패스_1797" data-name="패스 1797" d="M584.972,1236.335a1.435,1.435,0,1,0,.117.567A1.436,1.436,0,0,0,584.972,1236.335Z" transform="translate(663.326 -717.478)" fill="#91d3f5"/>
    <path id="패스_1798" data-name="패스 1798" d="M547.7,1092.8h0a.562.562,0,0,0-.562.562v1.123h0a.562.562,0,0,0,1.124,0v-1.123A.562.562,0,0,0,547.7,1092.8Z" transform="translate(696.805 -581.336)" fill="#0c4da2"/>
    <path id="패스_1799" data-name="패스 1799" d="M655.778,1095.049h0a.562.562,0,0,0,.562-.562v-1.123a.562.562,0,0,0-1.123,0v1.123A.561.561,0,0,0,655.778,1095.049Z" transform="translate(593.668 -581.336)" fill="#0c4da2"/>
    <path id="패스_1800" data-name="패스 1800" d="M580.849,1194.531a1.331,1.331,0,0,1-2.2.007l-.01-.018a.273.273,0,0,0-.475.27,1.87,1.87,0,0,0,3.168,0,.273.273,0,1,0-.484-.254Zm.3.157v0Z" transform="translate(667.227 -678.273)" fill="#0c4da2"/>
  </g>
</svg>
