<svg xmlns="http://www.w3.org/2000/svg" width="30" height="30" viewBox="0 0 30 30">
  <g id="그룹_150" data-name="그룹 150" transform="translate(-1237 -504)">
    <rect id="사각형_7594" data-name="사각형 7594" width="30" height="30" rx="5" transform="translate(1237 504)" fill="#0c4da2"/>
    <path id="패스_1792" data-name="패스 1792" d="M650.384,1196.6a2.722,2.722,0,0,1-2.722,2.722h-5.278a2.152,2.152,0,0,1,.093,1.437h6.194a3.363,3.363,0,0,0,3.363-3.363v-2.132h-1.651Z" transform="translate(611.563 -673.037)" fill="#fff"/>
    <path id="패스_1793" data-name="패스 1793" d="M428.059,1090.787h-.073a.98.98,0,0,0-1,.956v5.352h0a.879.879,0,0,0,.9.857h1.823v-7.166Z" transform="translate(812.189 -575.724)" fill="#91d3f5"/>
    <path id="패스_1794" data-name="패스 1794" d="M760.8,1090.788h-1.778v7.166h1.742a.952.952,0,0,0,.973-.929v-5.341A.918.918,0,0,0,760.8,1090.788Z" transform="translate(502.923 -575.725)" fill="#91d3f5"/>
    <g id="그룹_1026" data-name="그룹 1026" transform="translate(1242.498 508.548)">
      <path id="패스_1795" data-name="패스 1795" d="M491.918,999.025h-5.252l-.3-.519-.838-1.437-.737-1.265h-2.6a.452.452,0,0,0-.224.059.439.439,0,0,0-.163.6l.348.6.83,1.437.3.519H477.85a2.379,2.379,0,0,0-2.391,2.367v9.263a2.379,2.379,0,0,0,2.391,2.367h5.408a2.186,2.186,0,0,1,3.35,0h5.31a2.379,2.379,0,0,0,2.391-2.367v-9.263A2.379,2.379,0,0,0,491.918,999.025Z" transform="translate(-475.459 -995.804)" fill="#fff"/>
      <path id="패스_1796" data-name="패스 1796" d="M629.94,998.032l.553-.959.348-.6a.439.439,0,0,0,.06-.221.443.443,0,0,0-.446-.44h-1.811l.737,1.265Z" transform="translate(-618.138 -995.809)" fill="#fff"/>
    </g>
    <path id="패스_1797" data-name="패스 1797" d="M586.347,1236.768a2.152,2.152,0,1,0,.175.851A2.155,2.155,0,0,0,586.347,1236.768Z" transform="translate(667.599 -710.482)" fill="#91d3f5"/>
    <path id="패스_1798" data-name="패스 1798" d="M547.981,1092.8h0a.843.843,0,0,0-.843.842v1.685h0a.843.843,0,0,0,1.686,0v-1.685A.843.843,0,0,0,547.981,1092.8Z" transform="translate(700.276 -577.602)" fill="#0c4da2"/>
    <path id="패스_1799" data-name="패스 1799" d="M656.059,1096.173h0a.843.843,0,0,0,.843-.842v-1.685a.842.842,0,0,0-1.685,0v1.685A.842.842,0,0,0,656.059,1096.173Z" transform="translate(599.61 -577.602)" fill="#0c4da2"/>
    <path id="패스_1800" data-name="패스 1800" d="M582.208,1194.6a2,2,0,0,1-3.3.01l-.016-.027a.41.41,0,0,0-.712.4,2.806,2.806,0,0,0,4.752-.007.41.41,0,1,0-.726-.38Zm.447.235v0Z" transform="translate(671.407 -672.217)" fill="#0c4da2"/>
  </g>
</svg>
