<svg xmlns="http://www.w3.org/2000/svg" width="13" height="13.065" viewBox="0 0 13 13.065">
  <path id="path" d="M40.85,2.95A6.239,6.239,0,0,1,45.465,1a6,6,0,0,1,4.55,1.95A6.179,6.179,0,0,1,51.9,7.565a6.433,6.433,0,0,1-1.885,4.615A6.179,6.179,0,0,1,45.4,14.065a6.433,6.433,0,0,1-4.615-1.885A6.179,6.179,0,0,1,38.9,7.565,6.653,6.653,0,0,1,40.85,2.95Zm.91,8.255a5.024,5.024,0,0,0,3.64,1.56,4.919,4.919,0,0,0,3.64-1.56,5.024,5.024,0,0,0,1.56-3.64,4.818,4.818,0,0,0-1.56-3.64A4.621,4.621,0,0,0,45.465,2.3a4.919,4.919,0,0,0-3.64,1.56,5.024,5.024,0,0,0-1.56,3.64A4.764,4.764,0,0,0,41.76,11.205ZM44.815,4.25h1.3v3.9h-1.3Zm0,5.2h1.3v1.3h-1.3Z" transform="translate(-38.9 -1)" fill="#ea002c"/>
</svg>
