<svg id="chatbot-icon-orange" xmlns="http://www.w3.org/2000/svg" xmlns:xlink="http://www.w3.org/1999/xlink" width="28" height="28" viewBox="0 0 28 28">
  <defs>
    <clipPath id="clip-path">
      <rect id="사각형_9070" data-name="사각형 9070" width="21.412" height="21.412" fill="none"/>
    </clipPath>
  </defs>
  <rect id="사각형_9072" data-name="사각형 9072" width="28" height="28" rx="14" fill="#ff7902"/>
  <g id="그룹_1396" data-name="그룹 1396" transform="translate(3.294 3.294)">
    <g id="그룹_1395" data-name="그룹 1395" transform="translate(0 0)" clip-path="url(#clip-path)">
      <path id="패스_1872" data-name="패스 1872" d="M43.007,23.144a.755.755,0,1,1,1.509,0Z" transform="translate(-33.056 -17.521)" fill="#fff"/>
      <rect id="사각형_9069" data-name="사각형 9069" width="0.778" height="2.547" transform="translate(10.316 2.699)" fill="#fff"/>
      <path id="패스_1873" data-name="패스 1873" d="M44.162,10.76a.927.927,0,1,0-.927.927.927.927,0,0,0,.927-.927" transform="translate(-32.53 -8.061)" fill="#fff"/>
      <path id="패스_1874" data-name="패스 1874" d="M22.269,36.253a13.628,13.628,0,0,1-4.555-.708c-2.813-1.036-3.233-2.879-3.233-3.886a7.788,7.788,0,0,1,15.576,0c0,1.007-.42,2.85-3.233,3.886a13.627,13.627,0,0,1-4.555.708m0-11.6a7.017,7.017,0,0,0-7.01,7.01c0,.8.354,2.283,2.723,3.156a12.844,12.844,0,0,0,4.286.66,12.844,12.844,0,0,0,4.286-.66c2.369-.873,2.723-2.352,2.723-3.156a7.017,7.017,0,0,0-7.01-7.01" transform="translate(-11.564 -18.637)" fill="#fff"/>
      <path id="패스_1875" data-name="패스 1875" d="M29.409,33.346A5.452,5.452,0,0,0,23.957,38.8c0,3.011,10.9,3.011,10.9,0a5.452,5.452,0,0,0-5.452-5.452m-2.75,3.2c0-.753.372-1.363.83-1.363s.83.61.83,1.363-.372,1.363-.83,1.363-.83-.61-.83-1.363m4.325,2.824a1.954,1.954,0,0,1-3.149,0,.389.389,0,0,1,.627-.462,1.176,1.176,0,0,0,1.9,0,.389.389,0,1,1,.627.462m.346-1.462c-.458,0-.83-.61-.83-1.363s.372-1.363.83-1.363.83.61.83,1.363-.372,1.363-.83,1.363" transform="translate(-18.703 -25.776)" fill="#fff"/>
      <path id="패스_1876" data-name="패스 1876" d="M12.174,48.719h.492v2.408h-.492a.53.53,0,0,1-.529-.53V49.248a.529.529,0,0,1,.529-.529" transform="translate(-9.427 -37.359)" fill="#fff"/>
      <path id="패스_1877" data-name="패스 1877" d="M76.838,48.719h-.492v2.408h.492a.53.53,0,0,0,.529-.53V49.248a.529.529,0,0,0-.529-.529" transform="translate(-58.175 -37.359)" fill="#fff"/>
    </g>
  </g>
</svg>
