<svg xmlns="http://www.w3.org/2000/svg" width="15" height="14" viewBox="0 0 15 14">
  <path id="Icon_awesome-layer-group" data-name="Icon awesome-layer-group" d="M.363,4.047,7.188,6.936a.8.8,0,0,0,.624,0l6.824-2.889a.594.594,0,0,0,0-1.095L7.812.063a.8.8,0,0,0-.624,0L.363,2.952a.594.594,0,0,0,0,1.095ZM14.636,6.461l-1.7-.72-4.736,2a1.8,1.8,0,0,1-1.4,0l-4.735-2-1.7.72a.593.593,0,0,0,0,1.094l6.824,2.887a.8.8,0,0,0,.624,0l6.825-2.887a.593.593,0,0,0,0-1.094Zm0,3.494-1.7-.717L8.2,11.244a1.8,1.8,0,0,1-1.4,0L2.059,9.238l-1.7.717a.593.593,0,0,0,0,1.094l6.824,2.887a.8.8,0,0,0,.624,0l6.825-2.887a.593.593,0,0,0,0-1.094Z" transform="translate(0 0.001)" fill="#39374d"/>
</svg>
