<?xml version="1.0" standalone="no"?>
<!DOCTYPE svg PUBLIC "-//W3C//DTD SVG 20010904//EN"
 "http://www.w3.org/TR/2001/REC-SVG-20010904/DTD/svg10.dtd">
<svg version="1.0" xmlns="http://www.w3.org/2000/svg"
 width="71.000000pt" height="62.000000pt" viewBox="0 0 71.000000 62.000000"
 preserveAspectRatio="xMidYMid meet">

<g transform="translate(0.000000,62.000000) scale(0.100000,-0.100000)"
fill="#000000" stroke="none">
<path d="M246 504 c-92 -33 -153 -113 -143 -186 12 -92 105 -166 220 -175 34
-3 80 -14 103 -24 44 -21 90 -24 114 -9 12 8 10 14 -13 38 l-27 28 31 23 c35
26 68 92 69 134 0 67 -64 142 -149 172 -54 19 -153 18 -205 -1z"/>
</g>
</svg>
