<svg xmlns="http://www.w3.org/2000/svg" width="19.446" height="19.091" viewBox="0 0 19.446 19.091">
  <path id="Icon_simple-microsoftexcel" data-name="Icon simple-microsoftexcel" d="M19.084,2.664H12.569V3.87h1.92V5.777h-1.92v.608h1.92v1.91h-1.92V8.92h1.92v1.806h-1.92v.724h1.92v1.81h-1.92v.724h1.92V15.8h-1.92v1.328h6.514c.1-.031.189-.152.258-.363a1.777,1.777,0,0,0,.1-.515V2.885c0-.1-.036-.166-.1-.188A.891.891,0,0,0,19.084,2.664ZM18.239,15.8H15.114V13.983h3.125V15.8Zm0-2.543H15.114V11.448h3.125Zm0-2.534H15.114v-1.8h3.125v1.8Zm0-2.431H15.114V6.387h3.125V8.295h0Zm0-2.527H15.114v-1.9h3.125v1.9ZM0,2.364V17.435L11.473,19.42V.329L0,2.37Zm6.8,11.4q-.066-.177-.614-1.51c-.364-.888-.583-1.4-.647-1.552h-.02L4.288,13.632l-1.645-.111L4.594,9.875,2.808,6.229,4.485,6.14,5.593,8.993h.022L6.867,6.011,8.6,5.9,6.536,9.847l2.127,4.025L6.8,13.763Z" transform="translate(0 -0.329)" fill="#00802f"/>
</svg>
