<svg xmlns="http://www.w3.org/2000/svg" width="11" height="11" viewBox="0 0 11 11">
  <path id="Icon_metro-cross" data-name="Icon metro-cross" d="M13.47,10.765h0L10.133,7.428,13.47,4.091h0a.345.345,0,0,0,0-.486L11.894,2.028a.345.345,0,0,0-.486,0h0L8.071,5.366,4.734,2.029h0a.345.345,0,0,0-.486,0L2.671,3.6a.345.345,0,0,0,0,.486h0L6.008,7.428,2.671,10.765h0a.344.344,0,0,0,0,.486l1.576,1.576a.345.345,0,0,0,.486,0h0L8.071,9.491l3.337,3.337h0a.344.344,0,0,0,.486,0l1.576-1.576a.344.344,0,0,0,0-.486Z" transform="translate(-2.571 -1.928)" fill="#1e1e1e"/>
</svg>
