<svg xmlns="http://www.w3.org/2000/svg" width="21.773" height="21.812" viewBox="0 0 21.773 21.812">
  <g id="Icon_feather-phone-missed" data-name="Icon feather-phone-missed" transform="translate(-2.417 -0.439)">
    <path id="패스_400" data-name="패스 400" d="M31.234,1.5,25.5,7.234" transform="translate(-8.104)" fill="none" stroke="#fff" stroke-linecap="round" stroke-linejoin="round" stroke-width="1.5"/>
    <path id="패스_401" data-name="패스 401" d="M25.5,1.5l5.734,5.734" transform="translate(-8.104)" fill="none" stroke="#fff" stroke-linecap="round" stroke-linejoin="round" stroke-width="1.5"/>
    <path id="패스_402" data-name="패스 402" d="M22.174,17.258v2.867a1.911,1.911,0,0,1-2.083,1.911A18.912,18.912,0,0,1,11.843,19.1a18.635,18.635,0,0,1-5.734-5.734A18.912,18.912,0,0,1,3.176,5.083,1.911,1.911,0,0,1,5.077,3H7.944A1.911,1.911,0,0,1,9.856,4.644a12.27,12.27,0,0,0,.669,2.685,1.911,1.911,0,0,1-.43,2.016L8.881,10.559a15.29,15.29,0,0,0,5.734,5.734l1.214-1.214a1.911,1.911,0,0,1,2.016-.43,12.271,12.271,0,0,0,2.685.669,1.911,1.911,0,0,1,1.644,1.94Z" transform="translate(0 -0.544)" fill="none" stroke="#fff" stroke-linecap="round" stroke-linejoin="round" stroke-width="1.5"/>
  </g>
</svg>
