<svg xmlns="http://www.w3.org/2000/svg" width="21.773" height="21.812" viewBox="0 0 21.773 21.812">
  <g id="Icon_feather-phone-outgoing" data-name="Icon feather-phone-outgoing" transform="translate(-2.417 -0.439)">
    <path id="패스_403" data-name="패스 403" d="M31.234,7.234V1.5H25.5" transform="translate(47.674 9.689) rotate(180)" fill="none" stroke="#333" stroke-linecap="round" stroke-linejoin="round" stroke-width="1.5"/>
    <path id="패스_404" data-name="패스 404" d="M24,8.19,30.69,1.5" transform="translate(47.129 9.689) rotate(180)" fill="none" stroke="#333" stroke-linecap="round" stroke-linejoin="round" stroke-width="1.5"/>
    <path id="패스_405" data-name="패스 405" d="M22.174,17.258v2.867a1.911,1.911,0,0,1-2.083,1.911A18.912,18.912,0,0,1,11.843,19.1a18.635,18.635,0,0,1-5.734-5.734A18.912,18.912,0,0,1,3.176,5.083,1.911,1.911,0,0,1,5.077,3H7.944A1.911,1.911,0,0,1,9.856,4.644a12.27,12.27,0,0,0,.669,2.685,1.911,1.911,0,0,1-.43,2.016L8.881,10.559a15.29,15.29,0,0,0,5.734,5.734l1.214-1.214a1.911,1.911,0,0,1,2.016-.43,12.271,12.271,0,0,0,2.685.669,1.911,1.911,0,0,1,1.644,1.94Z" transform="translate(0 -0.544)" fill="none" stroke="#333" stroke-linecap="round" stroke-linejoin="round" stroke-width="1.5"/>
  </g>
</svg>
