<svg xmlns="http://www.w3.org/2000/svg" width="22.121" height="22.121" viewBox="0 0 22.121 22.121">
  <g id="Icon_feather-phone-off" data-name="Icon feather-phone-off" transform="translate(-0.439 -0.439)">
    <path id="패스_406" data-name="패스 406" d="M10.957,13.282a14.545,14.545,0,0,0,3.1,2.364l1.155-1.155a1.818,1.818,0,0,1,1.918-.409,11.673,11.673,0,0,0,2.555.636,1.818,1.818,0,0,1,1.564,1.818v2.727a1.818,1.818,0,0,1-1.982,1.818,17.991,17.991,0,0,1-7.845-2.791,17.654,17.654,0,0,1-3.027-2.427M5.966,12.827A17.991,17.991,0,0,1,3.175,4.982,1.818,1.818,0,0,1,4.984,3H7.712A1.818,1.818,0,0,1,9.53,4.564a11.673,11.673,0,0,0,.636,2.555,1.818,1.818,0,0,1-.409,1.918L8.6,10.191" transform="translate(-0.657 -0.591)" fill="none" stroke="#fff" stroke-linecap="round" stroke-linejoin="round" stroke-width="1.5"/>
    <path id="패스_407" data-name="패스 407" d="M21.5,1.5l-20,20" fill="none" stroke="#fff" stroke-linecap="round" stroke-linejoin="round" stroke-width="1.5"/>
  </g>
</svg>
