<svg xmlns="http://www.w3.org/2000/svg" width="20" height="18" viewBox="0 0 17 15">
  <g id="그룹_807" data-name="그룹 807" transform="translate(-933.5 -606.108)">
    <path id="패스_1569" data-name="패스 1569" d="M0,0H17V15H0Z" transform="translate(933.5 606.108)" fill="#e6e6e6"/>
    <path id="Icon_simple-hipchat" data-name="Icon simple-hipchat" d="M6.675,7.36s.035-.025.09-.067A3.307,3.307,0,0,0,8.117,4.682a3.811,3.811,0,0,0-4.058-3.5A3.813,3.813,0,0,0,0,4.682a3.812,3.812,0,0,0,4.058,3.5,4.654,4.654,0,0,0,.854-.077L5,8.092a4.224,4.224,0,0,0,2.127.673.218.218,0,0,0,.187-.373A4.108,4.108,0,0,1,6.675,7.36Z" transform="translate(937.941 608.636)" fill="#fff"/>
    <line id="선_1277" data-name="선 1277" x2="9.933" y2="10.483" transform="translate(935.055 619.075) rotate(-90)" fill="none" stroke="#e6e6e6" stroke-linecap="round" stroke-width="1"/>
    <line id="선_1278" data-name="선 1278" y1="7.717" x2="8.242" transform="translate(938.07 609.75)" fill="rgba(0,0,0,0)" stroke="#fff" stroke-linecap="round" stroke-width="1"/>
  </g>
</svg>
