<svg xmlns="http://www.w3.org/2000/svg" width="20" height="18" viewBox="0 0 17 15">
  <g id="그룹_702" data-name="그룹 702" transform="translate(-5679.813 432)">
    <rect id="사각형_4860" data-name="사각형 4860" width="20" height="18" transform="translate(5679.813 -432)" fill="#ccc"/>
    <path id="Icon_simple-hipchat" data-name="Icon simple-hipchat" d="M6.675,7.36s.035-.025.09-.067A3.307,3.307,0,0,0,8.117,4.682a3.811,3.811,0,0,0-4.058-3.5A3.813,3.813,0,0,0,0,4.682a3.812,3.812,0,0,0,4.058,3.5,4.654,4.654,0,0,0,.854-.077L5,8.092a4.224,4.224,0,0,0,2.127.673.218.218,0,0,0,.187-.373A4.108,4.108,0,0,1,6.675,7.36Z" transform="translate(5684.255 -429.473)" fill="#707070"/>
  </g>
</svg>
